<svg xmlns="http://www.w3.org/2000/svg" version="1.1" xmlns:xlink="http://www.w3.org/1999/xlink" xmlns:svgjs="http://svgjs.dev/svgjs" width="200" height="200"><svg t="1742801028387" class="icon" viewBox="0 0 1024 1024" version="1.1" xmlns="http://www.w3.org/2000/svg" p-id="3338" xmlns:xlink="http://www.w3.org/1999/xlink" width="200" height="200"><path d="M682.688 597.312h42.688V640h-42.688z" fill="#F5A955" p-id="3339"></path><path d="M725.312 554.688H768v42.688h-42.688z" fill="#F5A955" p-id="3340"></path><path d="M725.312 597.312H768V640h-42.688zM682.688 640h42.688v42.688h-42.688z" fill="#F5A955" p-id="3341"></path><path d="M725.312 640H768v42.688h-42.688zM768 554.688h42.688v42.688H768z" fill="#F5A955" p-id="3342"></path><path d="M768 597.312h42.688V640H768zM768 640h42.688v42.688H768zM682.688 682.688h42.688v42.688h-42.688z" fill="#F5A955" p-id="3343"></path><path d="M725.312 682.688H768v42.688h-42.688zM768 682.688h42.688v42.688H768z" fill="#F5A955" p-id="3344"></path><path d="M682.688 725.312h42.688V768h-42.688z" fill="#F5A955" p-id="3345"></path><path d="M725.312 725.312H768V768h-42.688zM768 725.312h42.688V768H768zM810.688 512h42.688v42.688h-42.688zM810.688 554.688h42.688v42.688h-42.688z" fill="#F5A955" p-id="3346"></path><path d="M810.688 597.312h42.688V640h-42.688zM810.688 640h42.688v42.688h-42.688zM810.688 682.688h42.688v42.688h-42.688zM896 469.312h42.688V512H896zM853.312 512H896v42.688h-42.688zM896 512h42.688v42.688H896z" fill="#F5A955" p-id="3347"></path><path d="M853.312 554.688H896v42.688h-42.688z" fill="#F5A955" p-id="3348"></path><path d="M853.312 597.312H896V640h-42.688zM896 554.688h42.688v42.688H896z" fill="#F5A955" p-id="3349"></path><path d="M896 597.312h42.688V640H896zM853.312 640H896v42.688h-42.688zM896 640h42.688v42.688H896zM597.312 640H640v42.688h-42.688zM512 682.688h42.688v42.688H512zM554.688 682.688h42.688v42.688h-42.688z" fill="#F5A955" p-id="3350"></path><path d="M597.312 682.688H640v42.688h-42.688zM512 725.312h42.688V768H512zM512 768h42.688v42.688H512z" fill="#F5A955" p-id="3351"></path><path d="M554.688 725.312h42.688V768h-42.688zM597.312 768H640v42.688h-42.688zM554.688 810.688h42.688v42.688h-42.688z" fill="#F5A955" p-id="3352"></path><path d="M597.312 810.688H640v42.688h-42.688zM512 853.312h42.688V896H512z" fill="#F5A955" p-id="3353"></path><path d="M554.688 853.312h42.688V896h-42.688zM512 810.688h42.688v42.688H512zM554.688 768h42.688v42.688h-42.688zM597.312 725.312H640V768h-42.688zM682.688 768h42.688v42.688h-42.688zM640 640h42.688v42.688H640zM640 682.688h42.688v42.688H640z" fill="#F5A955" p-id="3354"></path><path d="M640 725.312h42.688V768H640zM640 768h42.688v42.688H640z" fill="#F5A955" p-id="3355"></path><path d="M341.312 170.688H384v42.688h-42.688zM384 170.688h42.688v42.688H384zM426.688 213.312h42.688V256h-42.688z" fill="#FABE00" p-id="3356"></path><path d="M469.312 213.312H512V256h-42.688zM512 213.312h42.688V256H512zM554.688 256h42.688v42.688h-42.688zM597.312 298.688H640v42.688h-42.688zM640 170.688h42.688v42.624H640zM682.688 170.688h42.688v42.624h-42.688zM768 256h42.688v42.688H768zM469.312 128H512v42.688h-42.688zM512 128h42.688v42.688H512zM554.688 128h42.688v42.688h-42.688z" fill="#FABE00" p-id="3357"></path><path d="M597.312 128H640v42.688h-42.688zM725.312 213.312H768V256h-42.688z" fill="#FABE00" p-id="3358"></path><path d="M426.688 170.688h42.688v42.688h-42.688z" fill="#DA9000" p-id="3359"></path><path d="M469.312 170.688H512v42.688h-42.688zM256 213.312h42.688V256H256zM298.688 213.312h42.688V256h-42.688z" fill="#DA9000" p-id="3360"></path><path d="M341.312 213.312H384V256h-42.688zM384 213.312h42.688V256H384zM341.312 256H384v42.688h-42.688zM384 256h42.688v42.688H384zM426.688 256h42.688v42.688h-42.688z" fill="#DA9000" p-id="3361"></path><path d="M469.312 256H512v42.688h-42.688zM426.688 298.688h42.688v42.688h-42.688z" fill="#DA9000" p-id="3362"></path><path d="M469.312 298.688H512v42.688h-42.688zM512 170.688h42.688v42.688H512zM512 256h42.688v42.688H512zM512 298.688h42.688v42.688H512zM554.688 170.688h42.688v42.688h-42.688z" fill="#DA9000" p-id="3363"></path><path d="M554.688 213.312h42.688V256h-42.688zM554.688 298.688h42.688v42.688h-42.688zM597.312 170.688H640v42.624h-42.688z" fill="#DA9000" p-id="3364"></path><path d="M597.312 213.312H640V256h-42.688zM597.312 256H640v42.688h-42.688zM640 213.312h42.688V256H640zM640 256h42.688v42.688H640zM682.688 213.312h42.624V256h-42.624zM725.312 170.688H768v42.624h-42.688zM682.688 298.688h42.688v42.688h-42.688zM725.312 256H768v42.688h-42.688z" fill="#DA9000" p-id="3365"></path><path d="M725.312 298.688H768v42.688h-42.688zM768 213.312h42.688V256H768zM768 298.688h42.688v42.688H768zM810.688 170.688h42.688v42.688h-42.688z" fill="#DA9000" p-id="3366"></path><path d="M810.688 213.312h42.688V256h-42.688zM810.688 256h42.688v42.688h-42.688zM810.688 298.688h42.688v42.688h-42.688z" fill="#DA9000" p-id="3367"></path><path d="M853.312 213.312H896V256h-42.688zM853.312 256H896v42.688h-42.688zM853.312 298.688H896v42.688h-42.688zM896 256h42.688v42.688H896zM896 298.688h42.688v42.688H896zM938.688 298.688h42.688v42.688h-42.688zM682.688 384h42.688v42.688h-42.688zM682.688 426.688h42.688v42.688h-42.688z" fill="#DA9000" p-id="3368"></path><path d="M682.688 469.312h42.688V512h-42.688zM725.312 384H768v42.688h-42.688z" fill="#DA9000" p-id="3369" data-spm-anchor-id="a313x.search_index.0.i3.11df3a81qrE7qB" class=""></path><path d="M725.312 426.688H768v42.688h-42.688z" fill="#DA9000" p-id="3370" data-spm-anchor-id="a313x.search_index.0.i5.11df3a81qrE7qB" class=""></path><path d="M725.312 469.312H768V512h-42.688zM682.688 512h42.688v42.688h-42.688zM768 384h42.688v42.688H768zM768 426.688h42.688v42.688H768z" fill="#DA9000" p-id="3371"></path><path d="M768 469.312h42.688V512H768zM810.688 384h42.688v42.688h-42.688zM810.688 426.688h42.688v42.688h-42.688z" fill="#DA9000" p-id="3372"></path><path d="M853.312 384H896v42.688h-42.688zM853.312 426.688H896v42.688h-42.688zM896 384h42.688v42.688H896zM938.688 384h42.688v42.688h-42.688zM554.688 384h42.688v42.688h-42.688z" fill="#DA9000" p-id="3373"></path><path d="M597.312 384H640v42.688h-42.688zM597.312 426.688H640v42.688h-42.688z" fill="#DA9000" p-id="3374"></path><path d="M597.312 469.312H640V512h-42.688zM597.312 512H640v42.688h-42.688zM597.312 554.688H640v42.688h-42.688zM512 341.312h42.688V384H512zM554.688 341.312h42.688V384h-42.688z" fill="#DA9000" p-id="3375"></path><path d="M597.312 341.312H640V384h-42.688zM640 128h42.688v42.688H640zM640 298.688h42.688v42.688H640z" fill="#DA9000" p-id="3376"></path><path d="M640 341.312h42.688V384H640zM640 384h42.688v42.688H640zM640 426.688h42.688v42.688H640z" fill="#DA9000" p-id="3377"></path><path d="M640 469.312h42.688V512H640zM640 512h42.688v42.688H640zM640 554.688h42.688v42.688H640zM682.688 128h42.688v42.688h-42.688zM682.688 256h42.688v42.688h-42.688zM682.688 341.312h42.688V384h-42.688z" fill="#DA9000" p-id="3378" data-spm-anchor-id="a313x.search_index.0.i4.11df3a81qrE7qB" class=""></path><path d="M725.312 128H768v42.688h-42.688zM725.312 341.312H768V384h-42.688zM896 170.688h42.688v42.688H896z" fill="#DA9000" p-id="3379"></path><path d="M938.624 213.312h42.688V256h-42.688zM768 128h42.688v42.688H768zM768 170.688h42.688v42.688H768zM768 341.312h42.688V384H768zM810.688 341.312h42.688V384h-42.688zM853.312 170.688H896v42.688h-42.688z" fill="#DA9000" p-id="3380"></path><path d="M853.312 341.312H896V384h-42.688zM896 213.312h42.688V256H896zM896 341.312h42.688V384H896zM938.688 256h42.688v42.688h-42.688zM938.688 341.312h42.688V384h-42.688zM554.688 597.312h42.688V640h-42.688z" fill="#DA9000" p-id="3381"></path><path d="M85.312 298.688H128v42.688h-42.688zM128 298.688h42.688v42.688H128zM170.688 298.688h42.688v42.688h-42.688z" fill="#FEE8B9" p-id="3382"></path><path d="M213.312 298.688H256v42.688h-42.688zM256 298.688h42.688v42.688H256zM298.688 298.688h42.688v42.688h-42.688zM42.688 384h42.688v42.688H42.688z" fill="#FEE8B9" p-id="3383"></path><path d="M85.312 384H128v42.688h-42.688z" fill="#FEE8B9" p-id="3384"></path><path d="M128 384h42.688v42.688H128zM170.688 384h42.688v42.688h-42.688z" fill="#FEDE84" p-id="3385"></path><path d="M213.312 384H256v42.688h-42.688zM256 384h42.688v42.688H256zM298.688 384h42.688v42.688h-42.688z" fill="#FEE8B9" p-id="3386"></path><path d="M341.312 384H384v42.688h-42.688zM384 384h42.688v42.688H384zM426.688 384h42.688v42.688h-42.688z" fill="#FEE8B9" p-id="3387"></path><path d="M469.312 384H512v42.688h-42.688zM42.688 426.688h42.688v42.688H42.688z" fill="#FEE8B9" p-id="3388"></path><path d="M85.312 426.688H128v42.688h-42.688z" fill="#FEE8B9" p-id="3389"></path><path d="M128 426.688h42.688v42.688H128zM170.688 426.688h42.688v42.688h-42.688z" fill="#FEDE84" p-id="3390"></path><path d="M213.312 426.688H256v42.688h-42.688zM256 426.688h42.688v42.688H256zM298.688 426.688h42.688v42.688h-42.688z" fill="#FEE8B9" p-id="3391"></path><path d="M341.312 426.688H384v42.688h-42.688zM384 426.688h42.688v42.688H384zM426.688 426.688h42.688v42.688h-42.688z" fill="#FEE8B9" p-id="3392"></path><path d="M469.312 426.688H512v42.688h-42.688zM42.688 469.312h42.688V512H42.688zM213.312 469.312H256V512h-42.688zM298.688 469.312h42.688V512h-42.688zM384 469.312h42.688V512H384z" fill="#FEE8B9" p-id="3393"></path><path d="M426.688 469.312h42.688V512h-42.688zM512 426.688h42.688v42.688H512z" fill="#FEE8B9" p-id="3394"></path><path d="M512 469.312h42.688V512H512zM42.688 512h42.688v42.688H42.688zM213.312 512H256v42.688h-42.688zM298.688 512h42.688v42.688h-42.688zM384 512h42.688v42.688H384z" fill="#FEE8B9" p-id="3395"></path><path d="M426.688 512h42.688v42.688h-42.688z" fill="#FEDE84" p-id="3396"></path><path d="M128 554.688h42.688v42.688H128zM213.312 554.688H256v42.688h-42.688zM298.688 554.688h42.688v42.688h-42.688zM384 554.688h42.688v42.688H384zM426.688 554.688h42.688v42.688h-42.688z" fill="#FEE8B9" p-id="3397"></path><path d="M128 597.312h42.688V640H128zM213.312 597.312H256V640h-42.688zM298.688 597.312h42.688V640h-42.688zM426.688 597.312h42.688V640h-42.688zM512 554.688h42.688v42.688H512zM128 640h42.688v42.688H128zM170.688 640h42.688v42.688h-42.688z" fill="#FEE8B9" p-id="3398"></path><path d="M213.312 640H256v42.688h-42.688zM256 640h42.688v42.688H256zM298.688 640h42.688v42.688h-42.688z" fill="#FEE8B9" p-id="3399"></path><path d="M341.312 640H384v42.688h-42.688zM384 640h42.688v42.688H384zM426.688 640h42.688v42.688h-42.688zM128 682.688h42.688v42.688H128zM170.688 682.688h42.688v42.688h-42.688z" fill="#FEE8B9" p-id="3400"></path><path d="M213.312 682.688H256v42.688h-42.688zM256 682.688h42.688v42.688H256zM298.688 682.688h42.688v42.688h-42.688z" fill="#FEE8B9" p-id="3401"></path><path d="M341.312 682.688H384v42.688h-42.688zM384 682.688h42.688v42.688H384zM426.688 682.688h42.688v42.688h-42.688zM128 725.312h42.688V768H128zM170.688 725.312h42.688V768h-42.688z" fill="#FEE8B9" p-id="3402"></path><path d="M341.312 725.312H384V768h-42.688zM384 725.312h42.688V768H384z" fill="#FEDE84" p-id="3403"></path><path d="M426.688 725.312h42.688V768h-42.688z" fill="#FEE8B9" p-id="3404"></path><path d="M128 768h42.688v42.688H128zM384 768h42.688v42.688H384z" fill="#FEDE84" p-id="3405"></path><path d="M426.688 768h42.688v42.688h-42.688zM426.688 810.688h42.688v42.688h-42.688zM213.312 768H256v42.688h-42.688zM256 768h42.688v42.688H256zM298.688 768h42.688v42.688h-42.688zM170.688 810.688h42.688v42.688h-42.688z" fill="#FEE8B9" p-id="3406"></path><path d="M213.312 810.688H256v42.688h-42.688zM256 810.688h42.688v42.688H256zM298.688 810.688h42.688v42.688h-42.688z" fill="#FEE8B9" p-id="3407"></path><path d="M341.312 810.688H384v42.688h-42.688zM384 853.312h42.688V896H384zM426.688 853.312h42.688V896h-42.688zM42.688 341.312h42.688V384H42.688z" fill="#FEE8B9" p-id="3408"></path><path d="M85.312 341.312H128V384h-42.688zM128 341.312h42.688V384H128zM170.688 341.312h42.688V384h-42.688z" fill="#FEE8B9" p-id="3409"></path><path d="M213.312 341.312H256V384h-42.688zM256 341.312h42.688V384H256zM298.688 341.312h42.688V384h-42.688z" fill="#FEE8B9" p-id="3410"></path><path d="M341.312 341.312H384V384h-42.688zM384 341.312h42.688V384H384zM85.312 469.312H128V512h-42.688zM128 469.312h42.688V512H128zM170.688 469.312h42.688V512h-42.688zM256 469.312h42.688V512H256zM341.312 469.312H384V512h-42.688zM469.312 469.312H512V512h-42.688zM85.312 512H128v42.688h-42.688zM128 512h42.688v42.688H128zM170.688 512h42.688v42.688h-42.688zM256 512h42.688v42.688H256zM341.312 512H384v42.688h-42.688zM469.312 512H512v42.688h-42.688zM512 512h42.688v42.688H512zM85.312 554.688H128v42.688h-42.688zM170.688 554.688h42.688v42.688h-42.688zM256 554.688h42.688v42.688H256zM341.312 554.688H384v42.688h-42.688zM469.312 554.688H512v42.688h-42.688z" fill="#FEE8B9" p-id="3411"></path><path d="M170.688 597.312h42.688V640h-42.688z" fill="#FEE8B9" p-id="3412"></path><path d="M256 597.312h42.688V640H256z" fill="#FEDE84" p-id="3413"></path><path d="M341.312 597.312H384V640h-42.688zM384 597.312h42.688V640H384zM469.312 597.312H512V640h-42.688zM213.312 725.312H256V768h-42.688zM256 725.312h42.688V768H256zM298.688 725.312h42.688V768h-42.688zM170.688 768h42.688v42.688h-42.688z" fill="#FEE8B9" p-id="3414"></path><path d="M341.312 768H384v42.688h-42.688z" fill="#FEDE84" p-id="3415"></path><path d="M384 810.688h42.688v42.688H384z" fill="#FEE8B9" p-id="3416"></path><path d="M256 170.688h42.688v42.688H256zM298.688 170.688h42.688v42.688h-42.688zM170.688 213.312h42.688V256h-42.688z" p-id="3417"></path><path d="M213.312 213.312H256V256h-42.688zM85.312 256H128v42.688h-42.688zM128 256h42.688v42.688H128zM170.688 256h42.688v42.688h-42.688z" p-id="3418"></path><path d="M213.312 256H256v42.688h-42.688zM256 256h42.688v42.688H256zM298.688 256h42.688v42.688h-42.688zM42.688 298.688h42.688v42.688H42.688zM341.312 298.688H384v42.688h-42.688zM384 298.688h42.688v42.688H384zM469.312 85.312H512V128h-42.688zM512 85.312h42.688V128H512zM554.688 85.312h42.688V128h-42.688z" p-id="3419"></path><path d="M597.312 85.312H640V128h-42.688zM640 85.312h42.688V128H640zM682.688 85.312h42.688V128h-42.688z" p-id="3420"></path><path d="M725.312 85.312H768V128h-42.688zM768 85.312h42.688V128H768zM725.312 512H768v42.688h-42.688zM768 512h42.688v42.688H768zM682.688 554.688h42.688v42.688h-42.688zM725.312 768H768v42.688h-42.688zM768 768h42.688v42.688H768zM810.688 469.312h42.688V512h-42.688zM810.688 725.312h42.688V768h-42.688z" p-id="3421"></path><path d="M853.312 469.312H896V512h-42.688zM896 426.688h42.688v42.688H896zM938.688 426.688h42.688v42.688h-42.688z" p-id="3422"></path><path d="M938.688 469.312h42.688V512h-42.688zM938.688 512h42.688v42.688h-42.688zM938.688 554.688h42.688v42.688h-42.688z" p-id="3423"></path><path d="M938.688 597.312h42.688V640h-42.688zM938.688 640h42.688v42.688h-42.688zM853.312 682.688H896v42.688h-42.688zM896 682.688h42.688v42.688H896zM512 384h42.688v42.688H512zM554.688 426.688h42.688v42.688h-42.688zM554.688 512h42.688v42.688h-42.688zM42.688 554.688h42.688v42.688H42.688zM512 597.312h42.688V640H512zM85.312 640H128v42.688h-42.688zM469.312 640H512v42.688h-42.688zM512 640h42.688v42.688H512zM597.312 597.312H640V640h-42.688zM554.688 640h42.688v42.688h-42.688zM85.312 682.688H128v42.688h-42.688zM469.312 682.688H512v42.688h-42.688z" p-id="3424"></path><path d="M85.312 725.312H128V768h-42.688zM469.312 725.312H512V768h-42.688zM85.312 768H128v42.688h-42.688zM469.312 768H512v42.688h-42.688zM469.312 810.688H512v42.688h-42.688zM170.688 853.312h42.688V896h-42.688z" p-id="3425"></path><path d="M213.312 853.312H256V896h-42.688zM256 853.312h42.688V896H256zM298.688 853.312h42.688V896h-42.688z" p-id="3426"></path><path d="M341.312 853.312H384V896h-42.688zM597.312 853.312H640V896h-42.688zM384 896h42.688v42.688H384zM426.688 896h42.688v42.688h-42.688z" p-id="3427"></path><path d="M469.312 896H512v42.688h-42.688zM512 896h42.688v42.688H512zM554.688 896h42.688v42.688h-42.688zM682.688 810.688h42.688v42.688h-42.688zM469.312 853.312H512V896h-42.688zM341.312 128H384v42.688h-42.688zM384 128h42.688v42.688H384zM426.688 128h42.688v42.688h-42.688zM0 341.312h42.688V384H0zM426.688 341.312h42.688V384h-42.688z" p-id="3428"></path><path d="M469.312 341.312H512V384h-42.688zM0 384h42.688v42.688H0zM0 426.688h42.688v42.688H0z" p-id="3429"></path><path d="M0 469.312h42.688V512H0zM0 512h42.688v42.688H0zM640 597.312h42.688V640H640zM853.312 128H896v42.688h-42.688zM896 128h42.688v42.688H896zM938.624 170.688h42.688v42.688h-42.688zM981.312 213.312H1024V256h-42.688zM981.312 256H1024v42.688h-42.688zM640 810.688h42.688v42.688H640z" p-id="3430"></path><path d="M810.688 128h42.688v42.688h-42.688zM981.312 298.688H1024v42.688h-42.688z" p-id="3431"></path><path d="M981.312 341.312H1024V384h-42.688zM981.312 384H1024v42.688h-42.688zM554.688 469.312h42.688V512h-42.688zM85.312 597.312H128V640h-42.688zM554.688 554.688h42.688v42.688h-42.688zM85.312 810.688H128v42.688h-42.688zM128 810.688h42.688v42.688H128z" p-id="3432"></path></svg><style>@media (prefers-color-scheme: light) { :root { filter: none; } }
@media (prefers-color-scheme: dark) { :root { filter: none; } }
</style></svg>